---
title: 群星.1990-电影看板·人间道【宝丽金】【WAV+CUE】
date: 2022-12-04 12:11:38
categories: WAV车载音乐、镜像
tags: 华语中文
---
# 群星.1990-电影看板·人间道【宝丽金】【WAV+CUE】

REM GENRE POP
REM DATE 1990
REM DISCID B00B900C
REM COMMENT "ExactAudioCopy v1.0b2"
PERFORMER "群星"
TITLE "电影看板人间道）"
FILE "群星.-.[电影看板人间道](1990)[WAV].wav" WAVE
TRACK 01 AUDIO
TITLE "人间道"
PERFORMER "张学友"
FLAGS DCP
INDEX 00 00:00:00
INDEX 01 00:00:33
TRACK 02 AUDIO
TITLE "像我这样的朋友"
PERFORMER "谭咏麟"
FLAGS DCP
INDEX 00 02:30:33
INDEX 01 02:33:33
TRACK 03 AUDIO
TITLE "你是我所有的回忆"
PERFORMER "齐豫"
FLAGS DCP
INDEX 00 07:13:22
INDEX 01 07:16:23
TRACK 04 AUDIO
TITLE "老师,有问题"
PERFORMER "城市少女"
FLAGS DCP
INDEX 00 12:23:38
INDEX 01 12:26:38
TRACK 05 AUDIO
TITLE "思念"
PERFORMER "张学友"
FLAGS DCP
INDEX 00 16:04:35
INDEX 01 16:07:35
TRACK 06 AUDIO
TITLE "阿拉丁的故事"
PERFORMER "齐秦"
FLAGS DCP
INDEX 00 21:12:58
INDEX 01 21:15:58
TRACK 07 AUDIO
TITLE "半梦半醒之间"
PERFORMER "谭咏麟"
FLAGS DCP
INDEX 00 24:39:43
INDEX 01 24:42:43
TRACK 08 AUDIO
TITLE "大约在冬季"
PERFORMER "齐秦"
FLAGS DCP
INDEX 00 28:26:70
INDEX 01 28:29:70
TRACK 09 AUDIO
TITLE "尼罗河女儿"
PERFORMER "杨林"
FLAGS DCP
INDEX 00 32:19:23
INDEX 01 32:22:23
TRACK 10 AUDIO
TITLE "不是我不小心"
PERFORMER "张镐哲"
FLAGS DCP
INDEX 00 37:01:63
INDEX 01 37:04:63
TRACK 11 AUDIO
TITLE "来跳舞"
PERFORMER "童安格"
FLAGS DCP
INDEX 00 41:38:20
INDEX 01 41:41:20
TRACK 12 AUDIO
TITLE "何苦有这一段日子"
PERFORMER "邝美云"
FLAGS DCP
INDEX 00 45:43:72
INDEX 01 45:46:73
宝丽金群星.1990 - 电影看板·人间道【宝丽金】【WAV+CUE】.rar: https://url27.ctfile.com/f/9388027-739968105-87b035?p=559675
(访问密码: 559675)
原文：[链接](https://blog.sina.com.cn/s/blog_1647c7e76010310fs.html)